<svg width="32" height="32" viewBox="0 0 32 32" fill="none" xmlns="http://www.w3.org/2000/svg">
<path d="M29.1875 4H2.8125C1.26363 4 0 5.24283 0 6.76923V25.2308C0 26.752 1.258 28 2.8125 28H29.1875C30.7325 28 32 26.7614 32 25.2308V6.76923C32 5.248 30.742 4 29.1875 4ZM28.7991 5.84615L16.0596 18.3897L3.20994 5.84615H28.7991ZM1.875 24.8485V7.14271L10.9049 15.9575L1.875 24.8485ZM3.20081 26.1538L12.2364 17.2572L15.4025 20.3478C15.769 20.7056 16.3604 20.7044 16.7254 20.345L19.8125 17.3054L28.7992 26.1538H3.20081ZM30.125 24.8484L21.1383 16L30.125 7.15151V24.8484Z" fill="white"/>
</svg>
