<svg width="32" height="32" viewBox="0 0 32 32" fill="none" xmlns="http://www.w3.org/2000/svg">
<path d="M27.1635 4.82938C29.7202 7.38232 31.3841 10.5904 31.9861 14.1159C32.074 14.6089 31.7358 15.0817 31.242 15.156C31.2366 15.1567 31.2312 15.1573 31.2258 15.158C31.1783 15.164 31.1351 15.1695 31.0865 15.1695C30.6468 15.1695 30.2613 14.8588 30.1869 14.413C29.6526 11.2658 28.1646 8.39539 25.8784 6.1126C23.5923 3.83656 20.7177 2.34397 17.5658 1.81042C17.0653 1.72262 16.7339 1.2566 16.8151 0.756821C16.903 0.263792 17.3697 -0.0738993 17.8635 0.0139004C21.3941 0.61499 24.6069 2.27643 27.1635 4.82938Z" fill="white"/>
<path fill-rule="evenodd" clip-rule="evenodd" d="M25.3038 19.8229C24.6477 19.1407 23.8563 18.776 23.0176 18.776C22.1857 18.776 21.3876 19.134 20.7045 19.8161L18.5671 21.9436C18.4509 21.8811 18.3346 21.8215 18.2203 21.763C18.1619 21.733 18.1035 21.7031 18.0463 21.6734C17.8028 21.5519 17.5729 21.437 17.3767 21.3155C15.3747 20.0458 13.5552 18.3911 11.8102 16.2501C10.9647 15.183 10.3966 14.2847 9.98399 13.373C10.4851 12.9153 10.9531 12.4411 11.4079 11.9802L11.5532 11.8331C11.6479 11.7385 11.7426 11.6423 11.8372 11.5461C11.9319 11.4498 12.0266 11.3536 12.1213 11.259C13.5417 9.84073 13.5417 8.00369 12.1213 6.58538L10.2748 4.74159C10.0652 4.53222 9.84872 4.3161 9.64581 4.09998C9.23999 3.68124 8.81387 3.249 8.37423 2.84377C7.71816 2.1954 6.93357 1.85096 6.1084 1.85096C5.28322 1.85096 4.48511 2.1954 3.80874 2.84377L3.79521 2.85727L1.49555 5.17384C0.629801 6.03832 0.136051 7.09192 0.0278316 8.31436C-0.134497 10.2865 0.447181 12.1235 0.893585 13.3257C1.9893 16.2771 3.62612 19.0124 6.06781 21.9436C9.03031 25.4758 12.5948 28.2652 16.6665 30.2305C18.2222 30.9667 20.2986 31.8379 22.6186 31.9865C22.7606 31.9933 22.9094 32 23.0447 32C24.6071 32 25.9193 31.4394 26.9473 30.3251C26.9507 30.3183 26.9558 30.3132 26.9609 30.3082C26.9659 30.3031 26.971 30.2981 26.9744 30.2913C27.3 29.8974 27.6721 29.5381 28.0636 29.1601L28.158 29.0689C28.4489 28.792 28.7465 28.5015 29.0373 28.1976C29.7069 27.502 30.0586 26.6915 30.0586 25.8608C30.0586 25.0233 29.7002 24.2196 29.017 23.5442L25.3038 19.8229ZM27.0542 27.6087C27.0034 27.658 26.952 27.7079 26.9 27.7586C26.4604 28.1774 26.014 28.6164 25.5946 29.1094C24.9115 29.8388 24.1066 30.1832 23.0515 30.1832C22.95 30.1832 22.8418 30.1832 22.7403 30.1765C20.7315 30.0482 18.8647 29.2647 17.4646 28.5961C13.6364 26.7455 10.2748 24.1183 7.48143 20.7887C5.17501 18.0129 3.63288 15.4464 2.61156 12.6908C1.98254 11.0091 1.75257 9.6989 1.85403 8.46295C1.92167 7.67275 2.22603 7.01763 2.78742 6.45706L5.09384 4.15401C5.42526 3.84333 5.77697 3.67449 6.12192 3.67449C6.54804 3.67449 6.89298 3.93113 7.10942 4.14725L7.12971 4.16752C7.5423 4.55248 7.93459 4.95096 8.34718 5.37645C8.45281 5.48533 8.56016 5.59421 8.66837 5.70396C8.77491 5.81202 8.88236 5.92101 8.98973 6.03157L10.8362 7.87536C11.5532 8.59127 11.5532 9.25314 10.8362 9.96905C10.7706 10.0346 10.7057 10.1001 10.6411 10.1654C10.5126 10.2952 10.3851 10.424 10.2545 10.5499C9.68639 11.1307 9.1453 11.671 8.55685 12.1978C8.55206 12.2026 8.54727 12.2065 8.54278 12.2102C8.53459 12.217 8.5274 12.2229 8.52304 12.2316C7.94136 12.8124 8.04958 13.3797 8.17132 13.7647L8.19161 13.8255C8.67184 14.9871 9.34821 16.0813 10.3763 17.3847L10.3831 17.3915C12.2498 19.6878 14.2181 21.4776 16.3892 22.8486C16.6665 23.0242 16.9506 23.166 17.2211 23.3011C17.4646 23.4227 17.6946 23.5375 17.8908 23.659C17.9043 23.6658 17.9178 23.6742 17.9313 23.6827C17.9449 23.6911 17.9584 23.6996 17.9719 23.7063C18.2019 23.8211 18.4183 23.8752 18.6415 23.8752C19.2029 23.8752 19.5546 23.524 19.6696 23.4092L21.9828 21.0993C22.2128 20.8697 22.578 20.5928 23.0041 20.5928C23.4235 20.5928 23.7684 20.8562 23.9781 21.0858L27.7184 24.8207C28.4151 25.5096 28.4151 26.2187 27.7252 26.9346C27.5086 27.1675 27.2874 27.3823 27.0542 27.6087Z" fill="white"/>
<path d="M17.2953 7.61196C19.0674 7.90912 20.6771 8.7466 21.9622 10.0298C23.2473 11.313 24.0793 12.9205 24.3836 14.69C24.458 15.1357 24.8436 15.4464 25.2832 15.4464C25.3319 15.4464 25.375 15.4409 25.4226 15.4349L25.4388 15.4329C25.9393 15.3518 26.2707 14.8791 26.1896 14.3793C25.8243 12.2383 24.8098 10.2865 23.2609 8.73984C21.712 7.19322 19.7573 6.18015 17.6132 5.81544C17.1127 5.73439 16.646 6.06533 16.558 6.55836C16.4701 7.05139 16.7948 7.53091 17.2953 7.61196Z" fill="white"/>
</svg>
