<svg width="201" height="69" viewBox="0 0 201 69" fill="none" xmlns="http://www.w3.org/2000/svg">
<rect width="201" height="69" rx="12" fill="#5F5DE5"/>
<path d="M21 44.7347V28.2653H28.0163C29.1597 28.2653 30.1398 28.4569 30.9565 28.8401C31.7732 29.2232 32.3969 29.7759 32.8275 30.498C33.2582 31.2055 33.4735 32.0676 33.4735 33.0845C33.4735 33.8067 33.273 34.4994 32.8721 35.1625C32.4711 35.811 31.8103 36.3563 30.8897 36.7984V35.1183C31.7658 35.4573 32.4414 35.8626 32.9166 36.3342C33.3918 36.8058 33.7185 37.3216 33.8967 37.8817C34.0749 38.427 34.164 39.0017 34.164 39.606C34.164 41.2271 33.622 42.4872 32.538 43.3862C31.454 44.2852 29.9467 44.7347 28.0163 44.7347H21ZM24.4525 41.7503H28.4173C29.1152 41.7503 29.672 41.5514 30.0878 41.1534C30.5036 40.7555 30.7115 40.2397 30.7115 39.606C30.7115 38.9575 30.5036 38.4343 30.0878 38.0364C29.672 37.6385 29.1152 37.4395 28.4173 37.4395H24.4525V41.7503ZM24.4525 34.4551H28.2613C28.7959 34.4551 29.2191 34.3078 29.531 34.013C29.8577 33.7035 30.021 33.2982 30.021 32.7971C30.021 32.2961 29.8577 31.8981 29.531 31.6034C29.2191 31.2939 28.7959 31.1391 28.2613 31.1391H24.4525V34.4551Z" fill="white"/>
<path d="M35.6826 44.7347V28.2653H46.8419V31.2497H39.1351V34.9857H46.3964V37.9701H39.1351V41.7503H46.8419V44.7347H35.6826Z" fill="white"/>
<path d="M54.1393 45C53.0998 45 52.1198 44.8158 51.1991 44.4473C50.2933 44.0642 49.5063 43.5262 48.838 42.8336C48.1847 42.1409 47.6946 41.3229 47.368 40.3797L50.1968 39.1196C50.6125 40.0186 51.1842 40.7261 51.9119 41.2419C52.6543 41.7577 53.4711 42.0156 54.362 42.0156C54.8372 42.0156 55.2456 41.9419 55.5871 41.7945C55.9286 41.6472 56.1959 41.4482 56.389 41.1977C56.582 40.9324 56.6785 40.6229 56.6785 40.2692C56.6785 39.886 56.5597 39.5618 56.3221 39.2965C56.0845 39.0165 55.7133 38.7954 55.2084 38.6333L51.9564 37.5722C50.6348 37.1448 49.6399 36.5405 48.9717 35.7594C48.3035 34.9636 47.9694 34.013 47.9694 32.9077C47.9694 31.935 48.2069 31.0802 48.6821 30.3433C49.1722 29.6064 49.8478 29.0316 50.7091 28.619C51.5852 28.2063 52.5875 28 53.7161 28C54.711 28 55.6316 28.1695 56.4781 28.5085C57.3245 28.8474 58.0521 29.3264 58.6609 29.9454C59.2846 30.5644 59.7523 31.3086 60.0642 32.1782L57.2576 33.4382C56.9458 32.6719 56.4781 32.075 55.8544 31.6476C55.2307 31.2055 54.5179 30.9844 53.7161 30.9844C53.2557 30.9844 52.8474 31.0581 52.491 31.2055C52.1346 31.3528 51.8599 31.5665 51.6669 31.8466C51.4738 32.1118 51.3773 32.4213 51.3773 32.775C51.3773 33.1582 51.5035 33.4972 51.7559 33.7919C52.0084 34.072 52.387 34.293 52.8919 34.4551L56.0771 35.472C57.4136 35.8994 58.4085 36.4963 59.0618 37.2627C59.7301 38.029 60.0642 38.9649 60.0642 40.0702C60.0642 41.0282 59.8117 41.883 59.3069 42.6346C58.802 43.3715 58.1041 43.9536 57.2131 44.381C56.337 44.7937 55.3124 45 54.1393 45Z" fill="white"/>
<path d="M70.1367 45C68.8894 45 67.7311 44.7863 66.662 44.3589C65.5928 43.9315 64.6573 43.3346 63.8555 42.5683C63.0684 41.7872 62.4522 40.8808 62.0067 39.8492C61.5612 38.8175 61.3385 37.6974 61.3385 36.4889C61.3385 35.2805 61.5538 34.1604 61.9844 33.1287C62.4299 32.0971 63.0462 31.1981 63.8332 30.4317C64.6351 29.6654 65.5706 29.0685 66.6397 28.6411C67.7089 28.2137 68.8746 28 70.1367 28C71.3989 28 72.5646 28.2137 73.6338 28.6411C74.7029 29.0685 75.631 29.6654 76.418 30.4317C77.2199 31.1981 77.8361 32.0971 78.2668 33.1287C78.7123 34.1604 78.935 35.2805 78.935 36.4889C78.935 37.6974 78.7123 38.8175 78.2668 39.8492C77.8213 40.8808 77.1976 41.7872 76.3958 42.5683C75.6087 43.3346 74.6807 43.9315 73.6115 44.3589C72.5423 44.7863 71.3841 45 70.1367 45ZM70.1367 41.9051C70.8941 41.9051 71.592 41.7724 72.2305 41.5072C72.8839 41.2419 73.4556 40.8734 73.9456 40.4018C74.4356 39.9155 74.8143 39.3407 75.0816 38.6775C75.3489 38.0143 75.4825 37.2848 75.4825 36.4889C75.4825 35.6931 75.3489 34.971 75.0816 34.3225C74.8143 33.6593 74.4356 33.0845 73.9456 32.5982C73.4556 32.1118 72.8839 31.7434 72.2305 31.4928C71.592 31.2276 70.8941 31.0949 70.1367 31.0949C69.3794 31.0949 68.6741 31.2276 68.0207 31.4928C67.3822 31.7434 66.8179 32.1118 66.3279 32.5982C65.8379 33.0845 65.4592 33.6593 65.1919 34.3225C64.9246 34.971 64.791 35.6931 64.791 36.4889C64.791 37.2848 64.9246 38.0143 65.1919 38.6775C65.4592 39.3407 65.8379 39.9155 66.3279 40.4018C66.8179 40.8734 67.3822 41.2419 68.0207 41.5072C68.6741 41.7724 69.3794 41.9051 70.1367 41.9051Z" fill="white"/>
<path d="M80.6875 44.7347V28.2653H92.0473V31.2497H84.14V35.4278H90.9336V38.4122H84.14V44.7347H80.6875Z" fill="white"/>
<path d="M96.0491 44.7347V31.2497H91.8393V28.2653H103.645V31.2497H99.5016V44.7347H96.0491Z" fill="white"/>
<path d="M107.777 44.7347L103.433 28.2653H107.175L110.449 42.0598H109.447L112.9 28.2653H116.463L119.916 42.0598H118.914L122.188 28.2653H125.93L121.587 44.7347H117.577L114.102 31.4707H115.261L111.786 44.7347H107.777Z" fill="white"/>
<path d="M124.837 44.7347L130.45 28.2653H135.039L140.652 44.7347H136.887L135.774 41.3745H129.693L128.579 44.7347H124.837ZM130.651 38.3901H134.816L132.277 30.6086H133.212L130.651 38.3901Z" fill="white"/>
<path d="M141.68 44.7347V28.2653H148.028C149.172 28.2653 150.181 28.4642 151.058 28.8622C151.948 29.2601 152.646 29.8496 153.151 30.6307C153.656 31.4118 153.909 32.3771 153.909 33.5267C153.909 34.6467 153.649 35.6047 153.129 36.4005C152.609 37.1816 151.911 37.7711 151.035 38.1691L154.822 44.7347H150.946L146.848 37.4616L149.075 38.7659H145.133V44.7347H141.68ZM145.133 35.7815H148.051C148.541 35.7815 148.964 35.6857 149.32 35.4941C149.677 35.3026 149.951 35.0373 150.144 34.6983C150.352 34.3593 150.456 33.9688 150.456 33.5267C150.456 33.0698 150.352 32.6719 150.144 32.3329C149.951 31.9939 149.677 31.7287 149.32 31.5371C148.964 31.3455 148.541 31.2497 148.051 31.2497H145.133V35.7815Z" fill="white"/>
<path d="M155.841 44.7347V28.2653H167V31.2497H159.293V34.9857H166.555V37.9701H159.293V41.7503H167V44.7347H155.841Z" fill="white"/>
<rect x="167" y="21" width="7" height="7" fill="#5FE7C6"/>
<rect x="174" y="28" width="7" height="7" fill="#5FE7C6"/>
</svg>
