<svg width="70" height="72" viewBox="0 0 70 72" fill="none" xmlns="http://www.w3.org/2000/svg">
<path fill-rule="evenodd" clip-rule="evenodd" d="M8.69162 7.89078C6.10121 9.28562 5.26172 10.8041 5.26172 11.8698C5.26172 12.9354 6.10121 14.4539 8.69162 15.8488C11.1828 17.1901 14.7916 18.0945 18.9113 18.0945C23.0309 18.0945 26.6398 17.1901 29.1309 15.8488C31.7213 14.4539 32.5608 12.9354 32.5608 11.8698C32.5608 10.8041 31.7213 9.28562 29.1309 7.89078C26.6398 6.5494 23.0309 5.64502 18.9113 5.64502C14.7916 5.64502 11.1828 6.5494 8.69162 7.89078ZM6.38039 3.59849C9.71161 1.80475 14.1463 0.77002 18.9113 0.77002C23.6762 0.77002 28.1109 1.80475 31.4421 3.59849C34.6741 5.33877 37.4358 8.15139 37.4358 11.8698C37.4358 15.5882 34.6741 18.4008 31.4421 20.1411C28.1109 21.9348 23.6762 22.9695 18.9113 22.9695C14.1463 22.9695 9.71161 21.9348 6.38039 20.1411C3.14844 18.4008 0.386719 15.5882 0.386719 11.8698C0.386719 8.15139 3.14844 5.33877 6.38039 3.59849Z" fill="#0047FF"/>
<path fill-rule="evenodd" clip-rule="evenodd" d="M8.69162 15.847C11.1828 17.1884 14.7916 18.0928 18.9113 18.0928C23.0309 18.0928 26.6398 17.1884 29.1309 15.847C31.7213 14.4522 32.5608 12.9337 32.5608 11.868H37.4358V26.7176C37.4358 30.436 34.6741 33.2486 31.4421 34.9889C28.1109 36.7826 23.6762 37.8174 18.9113 37.8174C14.1463 37.8174 9.71161 36.7826 6.38039 34.9889C3.14844 33.2486 0.386719 30.436 0.386719 26.7176V11.868H5.26172C5.26172 12.9337 6.10121 14.4522 8.69162 15.847ZM5.26172 19.4801V26.7176C5.26172 27.7833 6.10121 29.3018 8.69162 30.6966C11.1828 32.038 14.7916 32.9424 18.9113 32.9424C23.0309 32.9424 26.6398 32.038 29.1309 30.6966C31.7213 29.3018 32.5608 27.7833 32.5608 26.7176V19.4801C32.1969 19.7145 31.8228 19.9344 31.4421 20.1393C28.1109 21.9331 23.6762 22.9678 18.9113 22.9678C14.1463 22.9678 9.71161 21.9331 6.38039 20.1393C5.99973 19.9344 5.62559 19.7145 5.26172 19.4801Z" fill="#0047FF"/>
<path fill-rule="evenodd" clip-rule="evenodd" d="M8.69162 30.6976C11.1828 32.039 14.7916 32.9434 18.9113 32.9434C23.0309 32.9434 26.6398 32.039 29.1309 30.6976C31.7213 29.3028 32.5608 27.7843 32.5608 26.7186H37.4358V41.5682C37.4358 45.2866 34.6741 48.0992 31.4421 49.8395C28.1109 51.6332 23.6762 52.668 18.9113 52.668C14.1463 52.668 9.71161 51.6332 6.38039 49.8395C3.14844 48.0992 0.386719 45.2866 0.386719 41.5682V26.7186H5.26172C5.26172 27.7843 6.10121 29.3028 8.69162 30.6976ZM5.26172 34.3306V41.5682C5.26172 42.6339 6.10121 44.1524 8.69162 45.5472C11.1828 46.8886 14.7916 47.793 18.9113 47.793C23.0309 47.793 26.6398 46.8886 29.1309 45.5472C31.7213 44.1524 32.5608 42.6339 32.5608 41.5682V34.3306C32.1969 34.5651 31.8228 34.7849 31.4421 34.9899C28.1109 36.7837 23.6762 37.8184 18.9113 37.8184C14.1463 37.8184 9.71161 36.7837 6.38039 34.9899C5.99973 34.7849 5.62559 34.5651 5.26172 34.3306Z" fill="#0047FF"/>
<path fill-rule="evenodd" clip-rule="evenodd" d="M8.69162 45.5482C11.1828 46.8896 14.7916 47.794 18.9113 47.794C23.0309 47.794 26.6398 46.8896 29.1309 45.5482C31.7213 44.1534 32.5608 42.6349 32.5608 41.5692H37.4358V56.4188C37.4358 60.1372 34.6741 62.9498 31.4421 64.6901C28.1109 66.4838 23.6762 67.5186 18.9113 67.5186C14.1463 67.5186 9.71161 66.4838 6.38039 64.6901C3.14844 62.9498 0.386719 60.1372 0.386719 56.4188V41.5692H5.26172C5.26172 42.6349 6.10121 44.1534 8.69162 45.5482ZM5.26172 49.1812V56.4188C5.26172 57.4844 6.10121 59.0029 8.69162 60.3978C11.1828 61.7392 14.7916 62.6436 18.9113 62.6436C23.0309 62.6436 26.6398 61.7392 29.1309 60.3978C31.7213 59.0029 32.5608 57.4844 32.5608 56.4188V49.1812C32.1969 49.4157 31.8228 49.6355 31.4421 49.8405C28.1109 51.6342 23.6762 52.669 18.9113 52.669C14.1463 52.669 9.71161 51.6342 6.38039 49.8405C5.99973 49.6355 5.62559 49.4157 5.26172 49.1812Z" fill="#0047FF"/>
<path fill-rule="evenodd" clip-rule="evenodd" d="M51.0558 36.6549C46.9361 36.6549 43.3273 35.7505 40.8362 34.4092C38.2457 33.0143 37.4062 31.4958 37.4062 30.4302H32.5312V45.2798C32.5312 45.2801 32.5312 45.2805 32.5312 45.2808V60.1304C32.5312 63.8488 35.293 66.6614 38.5249 68.4017C41.8561 70.1954 46.2908 71.2302 51.0558 71.2302C55.8207 71.2302 60.2554 70.1954 63.5867 68.4017C66.8186 66.6614 69.5803 63.8488 69.5803 60.1304V45.2808C69.5803 45.2805 69.5803 45.2801 69.5803 45.2798V30.4302H64.7053C64.7053 31.4958 63.8659 33.0143 61.2754 34.4092C58.7843 35.7505 55.1755 36.6549 51.0558 36.6549ZM64.7053 45.2808C64.7053 45.2805 64.7053 45.2801 64.7053 45.2798V38.0422C64.3415 38.2766 63.9673 38.4965 63.5867 38.7015C60.2554 40.4952 55.8207 41.5299 51.0558 41.5299C46.2908 41.5299 41.8561 40.4952 38.5249 38.7015C38.1443 38.4965 37.7701 38.2766 37.4062 38.0422V45.2798C37.4062 45.2801 37.4062 45.2805 37.4062 45.2808C37.4068 46.3464 38.2466 47.8644 40.8362 49.2587C43.3273 50.6001 46.9361 51.5045 51.0558 51.5045C55.1755 51.5045 58.7843 50.6001 61.2754 49.2587C63.865 47.8644 64.7048 46.3464 64.7053 45.2808ZM37.4062 60.1304V52.8928C37.7701 53.1273 38.1443 53.3471 38.5249 53.5521C41.8561 55.3458 46.2908 56.3806 51.0558 56.3806C55.8207 56.3806 60.2554 55.3458 63.5867 53.5521C63.9673 53.3471 64.3415 53.1273 64.7053 52.8928V60.1304C64.7053 61.1961 63.8659 62.7146 61.2754 64.1094C58.7843 65.4508 55.1755 66.3552 51.0558 66.3552C46.9361 66.3552 43.3273 65.4508 40.8362 64.1094C38.2457 62.7146 37.4062 61.1961 37.4062 60.1304Z" fill="url(#paint0_linear_93_6864)"/>
<path fill-rule="evenodd" clip-rule="evenodd" d="M40.8362 26.4529C38.2457 27.8478 37.4062 29.3663 37.4062 30.4319C37.4062 31.4976 38.2457 33.0161 40.8362 34.4109C43.3273 35.7523 46.9361 36.6567 51.0558 36.6567C55.1755 36.6567 58.7843 35.7523 61.2754 34.4109C63.8659 33.0161 64.7053 31.4976 64.7053 30.4319C64.7053 29.3663 63.8659 27.8478 61.2754 26.4529C58.7843 25.1115 55.1755 24.2072 51.0558 24.2072C46.9361 24.2072 43.3273 25.1115 40.8362 26.4529ZM38.5249 22.1606C41.8561 20.3669 46.2908 19.3322 51.0558 19.3322C55.8207 19.3322 60.2554 20.3669 63.5867 22.1606C66.8186 23.9009 69.5803 26.7135 69.5803 30.4319C69.5803 34.1503 66.8186 36.9629 63.5867 38.7032C60.2554 40.4969 55.8207 41.5317 51.0558 41.5317C46.2908 41.5317 41.8561 40.4969 38.5249 38.7032C35.293 36.9629 32.5312 34.1503 32.5312 30.4319C32.5312 26.7135 35.293 23.9009 38.5249 22.1606Z" fill="url(#paint1_linear_93_6864)"/>
<defs>
<linearGradient id="paint0_linear_93_6864" x1="61" y1="36.5001" x2="33" y2="72.5001" gradientUnits="userSpaceOnUse">
<stop stop-color="#00F0FF"/>
<stop offset="1" stop-color="#0047FF"/>
</linearGradient>
<linearGradient id="paint1_linear_93_6864" x1="54" y1="24.5" x2="33" y2="39" gradientUnits="userSpaceOnUse">
<stop stop-color="#00F0FF"/>
<stop offset="1" stop-color="#0047FF"/>
</linearGradient>
</defs>
</svg>
