<svg width="32" height="32" viewBox="0 0 32 32" fill="none" xmlns="http://www.w3.org/2000/svg">
<path fill-rule="evenodd" clip-rule="evenodd" d="M16.0739 0.879883C7.37003 0.879883 0.320312 7.89533 0.320312 16.5568C0.320312 23.4939 4.82977 29.3532 11.0918 31.4304C11.8795 31.5675 12.1749 31.0972 12.1749 30.6857C12.1749 30.3134 12.1552 29.0788 12.1552 27.7659C8.19709 28.4909 7.17311 26.8057 6.85804 25.9238C6.68081 25.4731 5.91283 24.0818 5.2433 23.7095C4.69192 23.4155 3.90425 22.6905 5.22361 22.6709C6.4642 22.6513 7.35034 23.8074 7.64572 24.2778C9.06354 26.6489 11.3281 25.9826 12.2339 25.5711C12.3718 24.5521 12.7853 23.8662 13.2382 23.4743C9.73306 23.0824 6.07036 21.7302 6.07036 15.7338C6.07036 14.0289 6.68081 12.618 7.6851 11.5206C7.52757 11.1287 6.97619 9.52181 7.84264 7.36623C7.84264 7.36623 9.162 6.95471 12.1749 8.97312C13.4351 8.62039 14.7742 8.44402 16.1133 8.44402C17.4523 8.44402 18.7914 8.62039 20.0516 8.97312C23.0645 6.93511 24.3839 7.36623 24.3839 7.36623C25.2503 9.52181 24.6989 11.1287 24.5414 11.5206C25.5457 12.618 26.1561 14.0093 26.1561 15.7338C26.1561 21.7498 22.4738 23.0824 18.9686 23.4743C19.5397 23.9642 20.032 24.9048 20.032 26.3745C20.032 28.4713 20.0123 30.1566 20.0123 30.6857C20.0123 31.0972 20.3076 31.5871 21.0953 31.4304C27.318 29.3532 31.8274 23.4743 31.8274 16.5568C31.8274 7.89533 24.7777 0.879883 16.0739 0.879883Z" fill="#E7ECF6"/>
</svg>
