<svg width="68" height="71" viewBox="0 0 68 71" fill="none" xmlns="http://www.w3.org/2000/svg">
<path fill-rule="evenodd" clip-rule="evenodd" d="M30.5931 42.8394C25.2841 42.8394 22.8932 44.0381 21.5492 45.054C21.3452 45.2081 21.0957 45.5951 21.0957 46.2715V60.9707C21.0957 61.9333 21.6989 62.6964 22.488 62.9202C28.2065 64.5415 36.9554 66.211 46.1425 64.5406C51.6475 63.5397 55.1315 61.6996 57.4006 59.7891C59.6688 57.8792 60.8673 55.7777 61.6214 54.0181C63.4566 49.736 62.8431 47.5216 62.333 46.7493C62.0766 46.361 61.8247 46.2618 61.7178 46.2393C61.6149 46.2177 61.5479 46.2379 61.4819 46.2907C59.899 47.557 58.7101 48.6658 57.694 49.6412C57.5314 49.7973 57.3695 49.9538 57.2082 50.1096C56.3998 50.891 55.6069 51.6572 54.8167 52.2894C53.8065 53.0975 52.7074 53.7705 51.3091 54.2179C49.9407 54.6558 48.4135 54.8368 46.5897 54.8368H34.5923C33.2116 54.8368 32.0923 53.7175 32.0923 52.3368C32.0923 50.9561 33.2116 49.8368 34.5923 49.8368H43.1274C43.0496 49.6156 42.9688 49.3798 42.8849 49.1282C42.1791 47.0108 41.1593 45.5732 39.5097 44.5877C37.7701 43.5485 35.0425 42.8394 30.5931 42.8394ZM48.445 49.7371C48.239 49.258 47.9673 48.5638 47.6283 47.5471C46.6479 44.6059 45.0017 42.0444 42.0739 40.2953C39.2361 38.6 35.4751 37.8394 30.5931 37.8394C24.445 37.8394 20.9261 39.2573 18.5343 41.0652C16.7635 42.4036 16.0957 44.4725 16.0957 46.2715V60.9707C16.0957 64.0254 18.0482 66.8585 21.1241 67.7306C27.189 69.4501 36.7829 71.3243 47.0369 69.46C53.2627 68.328 57.5865 66.1689 60.6211 63.6138C63.6565 61.058 65.2574 58.2272 66.2172 55.9877C68.3811 50.9385 68.3281 46.7542 66.5053 43.994C64.6708 41.2159 61.0321 40.2474 58.3584 42.3863C56.6087 43.7861 55.2981 45.0101 54.2313 46.0343C54.0356 46.2222 53.852 46.3993 53.6786 46.5667C52.8729 47.3441 52.2843 47.9121 51.6932 48.385C51.037 48.91 50.4698 49.2368 49.7852 49.4558C49.4188 49.5731 48.9846 49.6703 48.445 49.7371Z" fill="#0047FF"/>
<path fill-rule="evenodd" clip-rule="evenodd" d="M0.0996094 41.6724C0.0996094 37.3468 3.6062 33.8402 7.9318 33.8402H13.264C17.5896 33.8402 21.0962 37.3468 21.0962 41.6724V63.0011C21.0962 67.3267 17.5896 70.8333 13.264 70.8333H7.9318C3.60621 70.8333 0.0996094 67.3267 0.0996094 63.0012V41.6724ZM7.9318 38.8402C6.36762 38.8402 5.09961 40.1082 5.09961 41.6724V63.0012C5.09961 64.5653 6.36762 65.8333 7.9318 65.8333H13.264C14.8282 65.8333 16.0962 64.5653 16.0962 63.0011V41.6724C16.0962 40.1082 14.8282 38.8402 13.264 38.8402H7.9318Z" fill="#0047FF"/>
<path fill-rule="evenodd" clip-rule="evenodd" d="M33.4004 12.8702C33.4004 8.96863 36.5632 5.80579 40.4648 5.80579C44.0649 5.80579 47.036 8.49872 47.4737 11.9801C48.2928 11.7806 49.1486 11.6748 50.0291 11.6748C50.8777 11.6748 51.7033 11.7731 52.4953 11.9588C52.0294 5.72153 46.8212 0.805786 40.4648 0.805786C33.8018 0.805786 28.4004 6.20721 28.4004 12.8702C28.4004 19.2264 33.3159 24.4346 39.553 24.9007C39.3673 24.1088 39.2691 23.2833 39.2691 22.4348C39.2691 21.5542 39.3749 20.6982 39.5745 19.879C36.0932 19.4413 33.4004 16.4702 33.4004 12.8702Z" fill="url(#paint0_linear_93_6855)"/>
<path fill-rule="evenodd" clip-rule="evenodd" d="M49.7579 14.7615C45.7063 14.7615 42.4219 18.0459 42.4219 22.0975C42.4219 26.1491 45.7063 29.4336 49.7579 29.4336C53.8095 29.4336 57.094 26.1491 57.094 22.0975C57.094 18.0459 53.8095 14.7615 49.7579 14.7615ZM37.4219 22.0975C37.4219 15.2845 42.9449 9.76147 49.7579 9.76147C56.571 9.76147 62.094 15.2845 62.094 22.0975C62.094 28.9106 56.571 34.4336 49.7579 34.4336C42.9449 34.4336 37.4219 28.9106 37.4219 22.0975Z" fill="url(#paint1_linear_93_6855)"/>
<defs>
<linearGradient id="paint0_linear_93_6855" x1="33" y1="3" x2="50" y2="22.5" gradientUnits="userSpaceOnUse">
<stop stop-color="#00F0FF"/>
<stop offset="1" stop-color="#0047FF"/>
</linearGradient>
<linearGradient id="paint1_linear_93_6855" x1="41.5" y1="12.5001" x2="58" y2="34.0001" gradientUnits="userSpaceOnUse">
<stop stop-color="#00F0FF"/>
<stop offset="1" stop-color="#0047FF"/>
</linearGradient>
</defs>
</svg>
