<svg width="32" height="32" viewBox="0 0 32 32" fill="none" xmlns="http://www.w3.org/2000/svg">
<path fill-rule="evenodd" clip-rule="evenodd" d="M3.1423 0.879883C1.89373 0.879883 0.880859 1.86191 0.880859 3.07176V29.2875C0.880859 30.4975 1.89385 31.4787 3.1423 31.4787H29.2182C30.4673 31.4787 31.4796 30.4974 31.4796 29.2871V3.07176C31.4796 1.86191 30.4673 0.879883 29.2182 0.879883H3.1423ZM10.1793 12.7114V26.4871H5.60047V12.7114H10.1793ZM10.4811 8.45116C10.4811 9.77312 9.48723 10.8309 7.89083 10.8309L7.86083 10.8308C6.32408 10.8308 5.33058 9.773 5.33058 8.45104C5.33058 7.09907 6.35408 6.07079 7.92119 6.07079C9.48723 6.07079 10.4512 7.09907 10.4811 8.45116ZM17.2922 26.4871H12.7137C12.7137 26.4871 12.7737 14.0042 12.714 12.7119H17.2925V14.6618C17.9012 13.7233 18.9905 12.3885 21.4192 12.3885C24.4316 12.3885 26.6902 14.3574 26.6902 18.5886V26.4871H22.1119V19.1183C22.1119 17.2662 21.4488 16.0031 19.7924 16.0031C18.5273 16.0031 17.7739 16.8549 17.443 17.6779C17.3221 17.9716 17.2922 18.3838 17.2922 18.795V26.4871Z" fill="#E7ECF6"/>
</svg>
