<svg width="292" height="340" viewBox="0 0 292 340" fill="none" xmlns="http://www.w3.org/2000/svg">
<path d="M224.113 5.66663V68.1983C182.94 25.9091 126.844 1.49234 67.8872 0.198316H5.65727C4.15687 0.198316 2.71792 0.795334 1.65697 1.85804C0.596028 2.92075 0 4.36209 0 5.86498V334.532C0 336.035 0.596028 337.476 1.65697 338.539C2.71792 339.601 4.15687 340.198 5.65727 340.198H62.23C63.7304 340.198 65.1693 339.601 66.2303 338.539C67.2912 337.476 67.8872 336.035 67.8872 334.532V68.1983C154.443 70.7766 224.113 144.698 224.113 235.223V334.39C224.113 335.893 224.709 337.334 225.77 338.397C226.831 339.46 228.27 340.057 229.77 340.057H286.343C287.843 340.057 289.282 339.46 290.343 338.397C291.404 337.334 292 335.893 292 334.39V5.72331C292 4.22041 291.404 2.77907 290.343 1.71636C289.282 0.653658 287.843 0.0566406 286.343 0.0566406H229.77C228.279 0.056566 226.849 0.645823 225.79 1.6963C224.73 2.74679 224.128 4.17358 224.113 5.66663Z" fill="#003DFF"/>
</svg>
