<svg width="170" height="24" viewBox="0 0 170 24" fill="none" xmlns="http://www.w3.org/2000/svg">
<g clip-path="url(#clip0_93_6879)">
<path d="M21.1491 23.7663H15.3903L5.75874 9.31288V23.7663H0V0.33374H5.75874L15.3903 14.8539V0.33374H21.1491V23.7663Z" fill="#0047FF"/>
<path d="M37.8191 4.90676V9.64667H45.5311V14.0528H37.8191V19.1933H46.5454V23.7663H32.0644V0.33374H46.5454V4.90676H37.8191Z" fill="#0047FF"/>
<path d="M83.788 0.33374V23.7663H78.0293V9.71344L72.742 23.7663H68.0914L62.7705 9.68005V23.7663H57.0117V0.33374H63.8145L70.4488 16.5563L77.0158 0.33374H83.788Z" fill="#0047FF"/>
<path d="M100.423 4.90676V9.64667H108.135V14.0528H100.423V19.1933H109.145V23.7663H94.6641V0.33374H109.145V4.90676H100.423Z" fill="#0047FF"/>
<path d="M124.688 22.4645C122.853 21.4563 121.328 19.9729 120.278 18.1728C119.188 16.3369 118.643 14.2729 118.644 11.9809C118.645 9.68879 119.19 7.63038 120.278 5.80562C121.333 4.01363 122.856 2.53741 124.688 1.53302C126.54 0.509379 128.577 -0.00244141 130.8 -0.00244141C133.023 -0.00244141 135.06 0.510173 136.912 1.53541C138.739 2.53457 140.253 4.01271 141.29 5.80801C142.355 7.63277 142.888 9.69118 142.889 11.9833C142.89 14.2753 142.352 16.3393 141.273 18.1752C140.234 19.9736 138.721 21.4574 136.895 22.4669C135.054 23.4905 133.023 24.0023 130.801 24.0023C128.579 24.0023 126.542 23.4897 124.688 22.4645ZM135.33 16.9234C136.463 15.6773 137.03 14.0305 137.03 11.9833C137.03 9.91371 136.463 8.26141 135.33 7.02637C134.196 5.79132 132.686 5.17379 130.8 5.17379C128.892 5.17379 127.371 5.78575 126.237 7.00968C125.103 8.2336 124.536 9.89146 124.536 11.9833C124.536 14.0528 125.103 15.7051 126.237 16.9401C127.371 18.1752 128.892 18.7927 130.8 18.7927C132.686 18.7927 134.196 18.1696 135.33 16.9234Z" fill="url(#paint0_linear_93_6879)"/>
<path d="M156.73 23.1655C155.36 22.6092 154.266 21.7858 153.447 20.6954C152.628 19.605 152.196 18.2921 152.15 16.7566H158.28C158.368 17.6245 158.671 18.2868 159.189 18.7435C159.706 19.2002 160.38 19.4283 161.209 19.4278C162.062 19.4278 162.736 19.2331 163.23 18.8436C163.725 18.4542 163.971 17.9146 163.971 17.2247C163.979 16.958 163.93 16.6926 163.829 16.4455C163.727 16.1983 163.575 15.9749 163.382 15.7894C162.96 15.3929 162.47 15.0762 161.934 14.8548C161.136 14.5322 160.321 14.2536 159.492 14.0203C157.962 13.5524 156.716 13.0848 155.754 12.6175C154.769 12.1353 153.915 11.4269 153.262 10.5512C152.567 9.63878 152.219 8.44824 152.219 6.97953C152.219 4.79872 153.016 3.0908 154.61 1.85575C156.204 0.620698 158.281 0.00317383 160.841 0.00317383C163.444 0.00317383 165.543 0.620698 167.138 1.85575C168.733 3.0908 169.586 4.80985 169.698 7.01291H163.467C163.422 6.2563 163.141 5.66103 162.625 5.2271C162.11 4.79316 161.447 4.57619 160.637 4.57619C159.942 4.57619 159.381 4.75978 158.953 5.12696C158.525 5.49413 158.312 6.02265 158.312 6.71249C158.312 7.4691 158.671 8.05881 159.389 8.48162C160.108 8.90443 161.23 9.36061 162.757 9.85018C164.283 10.362 165.523 10.8516 166.478 11.3189C167.45 11.8009 168.297 12.4975 168.954 13.3551C169.648 14.2452 169.996 15.3912 169.996 16.7932C170.01 18.0781 169.653 19.3403 168.969 20.4315C168.284 21.5177 167.292 22.3845 165.992 23.032C164.692 23.6794 163.154 24.0021 161.378 24C159.649 24 158.099 23.7218 156.73 23.1655Z" fill="#0047FF"/>
</g>
<defs>
<linearGradient id="paint0_linear_93_6879" x1="125.029" y1="20.4577" x2="138.404" y2="0.410671" gradientUnits="userSpaceOnUse">
<stop offset="0.01" stop-color="#0047FF"/>
<stop offset="0.18" stop-color="#0057FF"/>
<stop offset="0.51" stop-color="#0081FF"/>
<stop offset="0.69" stop-color="#009BFF"/>
<stop offset="0.94" stop-color="#00E1FF"/>
<stop offset="1" stop-color="#00F0FF"/>
</linearGradient>
<clipPath id="clip0_93_6879">
<rect width="170" height="24" fill="white"/>
</clipPath>
</defs>
</svg>
