<svg width="1340" height="250" viewBox="0 0 1340 250" fill="none" xmlns="http://www.w3.org/2000/svg">
<g clip-path="url(#clip0_3_146)">
<path d="M357.329 212.403C371.336 212.297 385.062 208.468 397.099 201.31C401.151 199.161 403.907 199.636 405.367 202.735L417.894 226.016C419.092 228.647 418.259 231.036 415.392 233.185C407.016 238.604 397.825 242.649 388.17 245.166C376.986 248.419 365.4 250.081 353.753 250.103C326.289 250.103 304.551 242.109 288.538 226.12C272.539 210.613 264.54 189.487 264.54 162.742C264.54 138.889 272.539 118.72 288.538 102.235C303.366 86.976 323.43 79.3395 348.73 79.3257C376.911 79.3257 398.05 88.8696 412.147 107.957C422.648 122.294 427.664 144.136 427.195 173.484C427.299 174.213 427.231 174.957 426.997 175.655C426.764 176.354 426.371 176.989 425.85 177.51C425.328 178.031 424.693 178.424 423.994 178.657C423.295 178.89 422.551 178.958 421.821 178.855H314.707C315.939 187.071 319.695 194.701 325.455 200.69C332.855 208.512 343.48 212.417 357.329 212.403ZM314.335 147.6H381.328C381.282 139.741 378.497 132.144 373.452 126.116C367.472 119.67 359.355 116.455 349.102 116.468C337.637 116.468 329.038 119.684 323.306 126.116C318.252 132.231 315.13 139.708 314.335 147.6Z" fill="#003DFF"/>
<path d="M526.434 93.9101H527.508C538.533 84.3662 552.024 79.5874 567.981 79.5736C590.429 79.5736 607.51 87.4511 619.223 103.206C632.108 87.4649 649.781 79.5874 672.243 79.5736C691.535 79.5736 706.934 84.9446 718.441 95.6866C730.388 106.429 736.362 123.141 736.362 145.823V241.055C736.326 242.468 735.748 243.813 734.748 244.813C733.748 245.812 732.402 246.39 730.988 246.426H694.443C693.713 246.53 692.969 246.462 692.27 246.229C691.57 245.995 690.935 245.602 690.414 245.082C689.893 244.561 689.5 243.926 689.266 243.227C689.033 242.528 688.965 241.785 689.068 241.055V157.639C689.068 144.501 686.684 134.709 681.916 128.264C677.121 122.314 670.189 119.333 661.122 119.319C656.529 119.137 651.977 120.249 647.985 122.528C643.994 124.807 640.725 128.162 638.55 132.209C634.251 139.605 632.101 151.18 632.101 166.935V241.055C632.064 242.468 631.486 243.813 630.486 244.813C629.486 245.812 628.14 246.39 626.726 246.426H590.202C589.472 246.53 588.728 246.462 588.029 246.229C587.33 245.995 586.694 245.602 586.173 245.082C585.652 244.561 585.259 243.926 585.025 243.227C584.792 242.528 584.724 241.785 584.828 241.055V157.639C584.828 144.501 582.437 134.709 577.655 128.264C572.887 122.314 565.997 119.333 556.985 119.319C552.401 119.191 547.871 120.326 543.889 122.6C539.908 124.874 536.629 128.198 534.412 132.209C530.595 139.095 528.446 150.313 527.963 165.861V241.055C527.927 242.468 527.349 243.813 526.349 244.813C525.349 245.812 524.003 246.39 522.589 246.426H485.94C485.21 246.53 484.467 246.462 483.767 246.229C483.068 245.995 482.433 245.602 481.911 245.082C481.39 244.561 480.997 243.926 480.764 243.227C480.53 242.528 480.463 241.785 480.566 241.055V87.816C480.463 87.0866 480.53 86.3431 480.764 85.6443C480.997 84.9455 481.39 84.3106 481.911 83.7896C482.433 83.2687 483.068 82.876 483.767 82.6426C484.467 82.4093 485.21 82.3416 485.94 82.445H521.08C521.81 82.3416 522.554 82.4093 523.253 82.6426C523.952 82.876 524.588 83.2687 525.109 83.7896C525.63 84.3106 526.023 84.9455 526.257 85.6443C526.49 86.3431 526.558 87.0866 526.454 87.816L526.434 93.9101Z" fill="#003DFF"/>
<path d="M880.373 212.403C894.38 212.297 908.106 208.468 920.143 201.31C924.194 199.161 926.95 199.636 928.411 202.735L940.937 226.016C942.136 228.647 941.302 231.036 938.436 233.185C930.059 238.604 920.869 242.649 911.213 245.166C900.03 248.419 888.444 250.081 876.797 250.103C849.333 250.103 827.601 242.109 811.602 226.12C795.59 210.613 787.583 189.487 787.583 162.742C787.583 138.889 795.59 118.72 811.602 102.235C826.402 86.976 846.46 79.3395 871.774 79.3257C899.968 79.3257 921.107 88.8696 935.191 107.957C945.691 122.294 950.707 144.136 950.239 173.484C950.342 174.213 950.275 174.957 950.041 175.655C949.808 176.354 949.415 176.989 948.893 177.51C948.372 178.031 947.737 178.424 947.038 178.657C946.338 178.89 945.595 178.958 944.865 178.855H837.751C838.982 187.071 842.738 194.701 848.499 200.69C855.899 208.512 866.524 212.417 880.373 212.403ZM837.379 147.6H904.371C904.325 139.741 901.541 132.144 896.496 126.116C890.515 119.67 882.399 116.455 872.146 116.468C860.681 116.468 852.082 119.684 846.349 126.116C841.296 132.231 838.173 139.708 837.379 147.6Z" fill="#003DFF"/>
<path d="M1018.66 226.905C1001.94 211.521 993.585 190.816 993.585 164.787C993.585 138.758 1002 117.997 1018.84 102.504C1035.67 86.9966 1056.75 79.2362 1082.07 79.2224C1107.62 79.2224 1128.82 86.9828 1145.66 102.504C1162.5 118.025 1170.92 138.786 1170.92 164.787C1170.92 190.816 1162.5 211.521 1145.66 226.905C1128.82 242.288 1107.62 250.021 1082.07 250.103C1056.51 250.103 1035.37 242.37 1018.66 226.905ZM1051.73 132.024C1044.08 140.521 1040.26 151.442 1040.26 164.787C1040.26 178.132 1044.08 189.053 1051.73 197.55C1059.35 206.02 1069.5 210.254 1082.18 210.254C1094.86 210.254 1105.01 206.02 1112.63 197.55C1120.27 189.08 1124.1 178.159 1124.1 164.787C1124.1 151.414 1120.27 140.493 1112.63 132.024C1104.98 123.554 1094.83 119.319 1082.18 119.319C1069.53 119.319 1059.34 123.554 1051.63 132.024H1051.73Z" fill="#003DFF"/>
<path d="M1271.23 213.126C1283.88 213.126 1290.21 208.829 1290.23 200.235C1290.32 198.673 1290.04 197.11 1289.42 195.674C1288.79 194.238 1287.84 192.97 1286.63 191.972C1282.97 189.355 1279 187.197 1274.81 185.548C1272.17 184.35 1266.86 182.201 1258.87 179.103C1250.88 176.004 1244.72 173.374 1240.41 171.211C1222.73 162.618 1213.9 148.295 1213.91 128.243C1213.91 112.984 1219.64 100.996 1231.11 92.2782C1242.57 83.5606 1258.7 79.2018 1279.48 79.2018C1301.46 79.2018 1319.96 83.3815 1335 91.741C1338.35 93.4143 1339.13 95.8726 1337.07 98.8886L1324.17 125.393C1322.79 128.023 1320.64 128.615 1317.72 127.169C1306.49 120.66 1293.8 117.106 1280.82 116.84C1269.6 116.84 1263.99 120.655 1263.97 128.285C1263.97 133.559 1269.23 138.214 1279.75 142.249C1301.46 151.091 1312.57 155.629 1313.07 155.863C1330.98 164.456 1339.94 178.304 1339.94 197.405C1340.07 204.688 1338.48 211.898 1335.31 218.454C1332.13 225.011 1327.46 230.729 1321.67 235.147C1309.26 245.118 1292.81 250.103 1272.3 250.103C1248.66 250.103 1228.95 245.572 1213.19 236.511C1209.84 234.589 1209.05 232.379 1210.69 229.693L1223.94 202.136C1225.38 199.265 1227.64 198.542 1230.74 200.07C1246.03 208.774 1259.53 213.126 1271.23 213.126Z" fill="#003DFF"/>
<path d="M163.772 4.13148V49.7231C133.685 18.8902 92.6922 1.08802 49.609 0.144555H4.13408C3.03765 0.144555 1.98613 0.579839 1.21084 1.35465C0.43555 2.12947 0 3.18035 0 4.2761V243.906C0 245.002 0.43555 246.053 1.21084 246.827C1.98613 247.602 3.03765 248.037 4.13408 248.037H45.4749C46.5713 248.037 47.6228 247.602 48.3981 246.827C49.1734 246.053 49.609 245.002 49.609 243.906V49.7231C112.86 51.603 163.772 105.499 163.772 171.501V243.803C163.772 244.898 164.207 245.949 164.982 246.724C165.758 247.499 166.809 247.934 167.906 247.934H209.246C210.343 247.934 211.394 247.499 212.17 246.724C212.945 245.949 213.38 244.898 213.38 243.803V4.17281C213.38 3.07705 212.945 2.02617 212.17 1.25136C211.394 0.476544 210.343 0.0412598 209.246 0.0412598H167.906C166.816 0.0412053 165.771 0.470831 164.997 1.23673C164.223 2.00264 163.782 3.0429 163.772 4.13148Z" fill="#003DFF"/>
</g>
<defs>
<clipPath id="clip0_3_146">
<rect width="1340" height="250" fill="white"/>
</clipPath>
</defs>
</svg>
