<?xml version="1.0" standalone="no"?>
<!DOCTYPE svg PUBLIC "-//W3C//DTD SVG 20010904//EN"
 "http://www.w3.org/TR/2001/REC-SVG-20010904/DTD/svg10.dtd">
<svg version="1.0" xmlns="http://www.w3.org/2000/svg"
 width="680.000000pt" height="680.000000pt" viewBox="0 0 680.000000 680.000000"
 preserveAspectRatio="xMidYMid meet">
<metadata>
Created by potrace 1.14, written by Peter Selinger 2001-2017
</metadata>
<g transform="translate(0.000000,680.000000) scale(0.100000,-0.100000)"
fill="#000000" stroke="none">
<path d="M553 6789 c-11 -4 -32 -21 -46 -39 l-27 -32 0 -3320 c0 -3106 1
-3322 17 -3349 9 -15 30 -33 46 -39 39 -13 1211 -14 1236 0 10 5 27 22 37 37
19 27 19 96 20 2708 l1 2680 74 -3 c41 -1 92 -4 114 -7 67 -7 209 -25 235 -30
14 -3 50 -9 80 -15 48 -9 192 -44 285 -70 61 -17 249 -82 303 -106 17 -8 49
-21 70 -30 20 -9 87 -41 147 -72 61 -31 120 -60 132 -66 13 -6 23 -14 23 -18
0 -5 4 -8 10 -8 13 0 114 -62 118 -72 2 -4 9 -8 14 -8 21 0 325 -230 404 -305
305 -290 516 -552 664 -825 14 -25 27 -47 30 -50 3 -3 32 -59 64 -125 86 -178
86 -177 86 -192 0 -7 4 -13 8 -13 5 0 9 -6 9 -12 1 -7 19 -62 42 -122 46 -118
85 -245 108 -346 8 -36 17 -72 20 -80 3 -8 7 -24 8 -35 4 -30 22 -120 25 -120
1 0 3 -13 5 -30 2 -16 7 -50 10 -75 4 -25 8 -61 10 -80 2 -19 6 -56 10 -81 13
-107 16 -286 19 -1294 2 -583 4 -1065 4 -1072 1 -7 14 -25 28 -40 l26 -28 606
-3 c593 -2 608 -2 640 18 18 11 37 32 42 46 7 16 9 1197 8 3348 l-3 3322 -30
29 -29 30 -605 2 c-546 2 -607 0 -633 -15 -56 -33 -56 -21 -54 -710 0 -347 0
-632 -2 -632 -2 0 -40 36 -85 79 -109 106 -179 171 -218 201 -18 14 -37 30
-43 35 -22 21 -162 132 -196 155 -19 13 -37 27 -40 30 -11 12 -278 188 -335
220 -33 19 -62 36 -65 39 -11 13 -340 181 -340 174 0 -3 -6 0 -14 6 -30 25
-454 190 -556 216 -3 1 -12 4 -20 8 -13 5 -68 20 -120 33 -8 2 -50 13 -92 24
-79 21 -291 67 -318 68 -8 1 -42 6 -75 12 -110 19 -165 26 -265 34 -30 3 -55
6 -55 6 0 12 -1539 21 -1572 9z"/>
</g>
</svg>
