<?xml version="1.0" standalone="no"?>
<!DOCTYPE svg PUBLIC "-//W3C//DTD SVG 20010904//EN"
 "http://www.w3.org/TR/2001/REC-SVG-20010904/DTD/svg10.dtd">
<svg version="1.0" xmlns="http://www.w3.org/2000/svg"
 width="224.000000pt" height="224.000000pt" viewBox="0 0 224.000000 224.000000"
 preserveAspectRatio="xMidYMid meet">
<metadata>
Created by potrace 1.14, written by Peter Selinger 2001-2017
</metadata>
<g transform="translate(0.000000,224.000000) scale(0.100000,-0.100000)"
fill="#000000" stroke="none">
<path d="M1073 1920 c-43 -17 -49 -35 -78 -270 -3 -19 -8 -55 -11 -80 -3 -25
-7 -58 -10 -75 -2 -16 -6 -50 -9 -75 -3 -25 -9 -67 -13 -95 l-7 -50 -14 35
c-8 19 -22 53 -32 76 -10 22 -28 65 -39 95 -12 30 -28 68 -35 84 -8 17 -28 66
-46 110 -57 144 -102 150 -232 35 -158 -140 -259 -365 -260 -575 0 -365 257
-699 613 -795 128 -35 314 -33 445 3 142 40 268 117 380 231 85 88 132 158
172 257 26 65 26 64 46 156 14 59 15 237 3 293 -23 103 -33 135 -67 209 -57
123 -130 214 -234 291 -79 58 -111 72 -151 64 -41 -8 -46 -14 -116 -157 l-53
-108 -70 157 c-42 93 -79 162 -91 171 -29 18 -64 23 -91 13z m560 -340 c69
-74 132 -198 153 -299 47 -228 -17 -442 -180 -606 -83 -84 -208 -159 -299
-180 -10 -2 -26 -6 -35 -9 -53 -16 -198 -23 -252 -12 -14 3 -38 8 -55 12 -16
3 -59 17 -95 31 -189 74 -348 246 -401 433 -19 69 -19 70 -26 152 -9 127 35
272 122 393 47 66 85 105 85 86 0 -6 10 -33 21 -59 33 -73 41 -92 138 -332
106 -260 100 -248 133 -273 19 -14 34 -17 57 -12 53 11 60 32 86 240 4 28 13
93 20 145 8 52 17 122 21 155 4 33 8 69 10 80 1 11 3 31 4 45 1 18 13 1 45
-65 25 -49 44 -94 45 -99 0 -5 11 -24 26 -43 20 -26 32 -33 60 -33 19 0 44 5
55 10 10 6 52 80 94 166 86 178 76 174 168 74z"/>
</g>
</svg>
