<svg width="1512" height="1572" viewBox="0 0 1512 1572" fill="none" xmlns="http://www.w3.org/2000/svg">
<rect x="-104.002" y="1004.01" width="136" height="136" rx="8" fill="#000066"/>
<rect x="-104.002" y="860.006" width="136" height="136" rx="8" fill="#000066"/>
<rect x="-104.002" y="716.006" width="136" height="136" rx="8" fill="#000066"/>
<rect x="40.004" y="1148" width="136" height="136" rx="8" fill="#000066"/>
<rect x="40.004" y="1435.99" width="136" height="136" rx="8" fill="#000066"/>
<rect x="40.004" y="1004" width="136" height="136" rx="8" fill="#000066"/>
<rect x="40.004" y="860.004" width="136" height="136" rx="8" fill="#000066"/>
<rect x="40.004" y="575.998" width="136" height="136" rx="8" fill="#000066"/>
<rect x="184.006" y="1004" width="136" height="136" rx="8" fill="#000066"/>
<rect x="184.006" y="860.003" width="136" height="136" rx="8" fill="#000066"/>
<rect x="184.006" y="716.004" width="136" height="136" rx="8" fill="#000066"/>
<rect x="184.006" y="572.004" width="136" height="136" rx="8" fill="#000066"/>
<rect x="184.008" y="283.991" width="136" height="136" rx="8" fill="#000066"/>
<rect x="328.002" y="1148" width="136" height="136" rx="8" fill="#000066"/>
<rect x="328.42" y="1292.17" width="136" height="136" rx="8" fill="#000066"/>
<rect x="328.002" y="1004" width="136" height="136" rx="8" fill="#000066"/>
<rect x="328.002" y="860.004" width="136" height="136" rx="8" fill="#000066"/>
<rect x="328.002" y="716.004" width="136" height="136" rx="8" fill="#000066"/>
<rect x="328.002" y="572.004" width="136" height="136" rx="8" fill="#000066"/>
<rect x="328.002" y="428.004" width="136" height="136" rx="8" fill="#000066"/>
<rect x="472.004" y="1148" width="136" height="136" rx="8" fill="#000066"/>
<rect x="472.004" y="1004" width="136" height="136" rx="8" fill="#000066"/>
<rect x="472.004" y="860.004" width="136" height="136" rx="8" fill="#000066"/>
<rect x="472.004" y="716.004" width="136" height="136" rx="8" fill="#000066"/>
<rect x="472.004" y="572.004" width="136" height="136" rx="8" fill="#000066"/>
<rect x="616.004" y="1004" width="136" height="136" rx="8" fill="#000066"/>
<rect x="616.004" y="860.005" width="136" height="136" rx="8" fill="#000066"/>
<rect x="616.004" y="716.005" width="136" height="136" rx="8" fill="#000066"/>
<rect x="760.004" y="1148" width="136" height="136" rx="8" fill="#000066"/>
<rect x="760.004" y="1004" width="136" height="136" rx="8" fill="#000066"/>
<rect x="760.004" y="860.004" width="136" height="136" rx="8" fill="#000066"/>
<rect x="760.004" y="716.004" width="136" height="136" rx="8" fill="#000066"/>
<rect x="760.004" y="572.004" width="136" height="136" rx="8" fill="#000066"/>
<rect x="760.004" y="428.004" width="136" height="136" rx="8" fill="#000066"/>
<rect x="759.756" y="283.837" width="136" height="136" rx="8" fill="#000066"/>
<rect x="904.004" y="1004" width="136" height="136" rx="8" fill="#000066"/>
<rect x="1192" y="1004" width="136" height="136" rx="8" fill="#000066"/>
<rect x="904.004" y="1148" width="136" height="136" rx="8" fill="#000066"/>
<rect x="904.004" y="1291.99" width="136" height="136" rx="8" fill="#000066"/>
<rect x="904.004" y="1435.98" width="136" height="136" rx="8" fill="#000066"/>
<rect x="904.004" y="860.004" width="136" height="136" rx="8" fill="#000066"/>
<rect x="1048.13" y="859.297" width="136" height="136" rx="8" fill="#000066"/>
<rect x="1192.38" y="715.047" width="136" height="136" rx="8" fill="#000066"/>
<rect x="1335.92" y="571.504" width="136" height="136" rx="8" fill="#000066"/>
<rect x="1335.34" y="426.672" width="136" height="136" rx="8" fill="#000066"/>
<rect x="1334.63" y="283.13" width="136" height="136" rx="8" fill="#000066"/>
<rect x="904.004" y="716.004" width="136" height="136" rx="8" fill="#000066"/>
<rect x="904.004" y="572.004" width="136" height="136" rx="8" fill="#000066"/>
<rect x="1048.26" y="428.087" width="136" height="136" rx="8" fill="#000066"/>
<rect x="1480.3" y="428.794" width="136" height="136" rx="8" fill="#000066"/>
<rect x="1337.46" y="717.293" width="136" height="136" rx="8" fill="#000066"/>
<rect x="1052.5" y="143.83" width="136" height="136" rx="8" fill="#000066"/>
<rect x="1196.04" y="0.287109" width="136" height="136" rx="8" fill="#000066"/>
</svg>
