<svg width="80" height="80" viewBox="0 0 80 80" fill="none" xmlns="http://www.w3.org/2000/svg">
<path fill-rule="evenodd" clip-rule="evenodd" d="M23.3333 20.8334C22.5272 20.8334 21.7629 20.8948 21.0382 21.0137C21.0138 21.0177 20.9894 21.0213 20.965 21.0246C17.3185 21.5127 14.4211 23.1796 12.4156 25.6896C10.3969 28.2159 9.16666 31.7453 9.16666 36.1112C9.16666 37.4919 8.04737 38.6112 6.66666 38.6112C5.28594 38.6112 4.16666 37.4919 4.16666 36.1112C4.16666 30.8059 5.66979 26.122 8.50943 22.5683C11.355 19.0072 15.4277 16.7299 20.2652 16.0737C21.2622 15.9122 22.2857 15.8334 23.3333 15.8334H56.6667C57.5682 15.8334 58.5473 15.868 59.5376 16.0381C64.416 16.6581 68.5348 18.9209 71.4186 22.4854C74.3019 26.0493 75.8333 30.7648 75.8333 36.1112V53.8889C75.8333 59.7439 73.9968 64.8365 70.5738 68.4877C67.1372 72.1534 62.2852 74.1667 56.6667 74.1667H31.6667C30.2859 74.1667 29.1667 73.0474 29.1667 71.6667C29.1667 70.286 30.2859 69.1667 31.6667 69.1667H56.6667C61.0481 69.1667 64.5295 67.6244 66.9261 65.068C69.3365 62.4969 70.8333 58.7007 70.8333 53.8889V36.1112C70.8333 31.7153 69.5814 28.1641 67.5314 25.6302C65.4943 23.1123 62.5529 21.4503 58.8589 20.9921C58.8155 20.9867 58.7722 20.9802 58.7291 20.9725C58.142 20.8682 57.4782 20.8334 56.6667 20.8334H23.3333Z" fill="#0047FF"/>
<path fill-rule="evenodd" clip-rule="evenodd" d="M31.9919 47.4582C32.9917 48.4104 33.0303 49.9929 32.0781 50.9927L19.5081 64.1912C17.106 66.7134 13.1586 66.7134 10.7565 64.1912L4.85632 57.9961C3.9041 56.9963 3.9427 55.4138 4.94252 54.4616C5.94235 53.5094 7.52479 53.548 8.47701 54.5478L14.3772 60.743C14.8088 61.1962 15.4557 61.1962 15.8874 60.7429L28.4574 47.5444C29.4096 46.5446 30.9921 46.506 31.9919 47.4582Z" fill="url(#paint0_linear_93_6876)"/>
<path fill-rule="evenodd" clip-rule="evenodd" d="M8.70379 23.5429C7.91126 16.3897 12.7332 9.72146 19.8216 8.93611L52.6367 5.30043C59.7252 4.51507 65.8898 9.96609 66.6824 17.1193L66.9795 19.8013L62.0099 20.3519L61.7128 17.6699C61.1924 12.9732 57.2516 9.81972 53.1873 10.27L20.3722 13.9057C16.3079 14.356 13.153 18.2956 13.6734 22.9923L8.70379 23.5429Z" fill="#0047FF"/>
<path fill-rule="evenodd" clip-rule="evenodd" d="M50.8333 44.9999C50.8333 39.9373 54.9374 35.8333 60 35.8333H70.4762C73.4348 35.8333 75.8333 38.2317 75.8333 41.1904V48.8094C75.8333 51.7681 73.4348 54.1666 70.4762 54.1666H60C54.9374 54.1666 50.8333 50.0625 50.8333 44.9999ZM55.8333 44.9999C55.8333 47.3011 57.6988 49.1666 60 49.1666H70.4762C70.6734 49.1666 70.8333 49.0067 70.8333 48.8094V41.1904C70.8333 40.9932 70.6734 40.8333 70.4762 40.8333H60C57.6988 40.8333 55.8333 42.6987 55.8333 44.9999Z" fill="#0047FF"/>
<defs>
<linearGradient id="paint0_linear_93_6876" x1="23.5002" y1="54.5" x2="13.0002" y2="66" gradientUnits="userSpaceOnUse">
<stop stop-color="#00F0FF"/>
<stop offset="1" stop-color="#0047FF"/>
</linearGradient>
</defs>
</svg>
